<svg xmlns="http://www.w3.org/2000/svg" aria-hidden="true" style="position:absolute;width:0;height:0;overflow:hidden"><defs><symbol id="icon-Icon4" viewBox="0 0 75 32"><path fill="#f4f4fd" d="M1.143.143h73.143a1 1 0 0 1 1 1v29.714a1 1 0 0 1-1 1H1.143a1 1 0 0 1-1-1V1.143a1 1 0 0 1 1-1z" style="fill:var(--color1, #f4f4fd)"/><path fill="#4d5ae5" d="M46.842 9.442a.307.307 0 0 0-.244-.207h-.002l-1.091-.159-.489-.989c-.103-.209-.444-.209-.547 0l-.489.989-1.092.159a.307.307 0 0 0-.246.205l-.001.002a.308.308 0 0 0 .077.313l.79.77-.187 1.087a.306.306 0 0 0 .442.321l.977-.513.977.513a.301.301 0 0 0 .322-.024l-.001.001a.304.304 0 0 0 .121-.298l-.186-1.087.79-.77a.304.304 0 0 0 .077-.314l.001.002zm-1.407.759a.304.304 0 0 0-.087.27l.109.637-.572-.3a.301.301 0 0 0-.286.001l.002-.001-.572.3.109-.637a.303.303 0 0 0-.088-.27l-.463-.451.639-.093a.303.303 0 0 0 .229-.167l.286-.579.286.579c.045.09.13.152.23.167l.639.093-.462.451zm-1.93 8.383h-.609v.61h.609v-.61zm0 1.219h-.609v.61h.609v-.61zm.609-.609h-.609v.609h.609v-.609zm-1.219 0h-.61v.609h.61v-.609zm-1.524 2.743h-.609v.609h.609v-.609zm0 1.219h-.609v.609h.609v-.609zm.61-.61h-.61v.61h.61v-.61zm-1.219 0h-.61v.61h.61v-.61zm-3.048-1.829h-.609v.61h.609v-.61zm0 1.22h-.609v.609h.609v-.609zm.61-.61h-.609v.61h.609v-.61zm-1.219 0h-.61v.61h.61v-.61zm-5.181-10.972h-.609v.609h.609v-.609zm0 1.219h-.609v.61h.609v-.609zm.609-.609h-.609v.61h.609v-.61zm-1.219 0h-.61v.61h.61v-.61z" style="fill:var(--color2, #4d5ae5)"/><path fill="#2e2f42" d="M42.694 14.948a1.013 1.013 0 0 0-.674-.402l-.005-.001a1.01 1.01 0 0 0-.768.204l.002-.002-.715.548-1.085.81-.776-.309a3.966 3.966 0 0 0 2.351-3.611c0-2.185-1.784-3.962-3.978-3.962S33.068 10 33.068 12.185c0 .792.237 1.528.64 2.148l-1.582-.014c-.005 0-.009.002-.013.003a.342.342 0 0 0-.091.018l.002-.001-.022.007-.011.004-1.848.912-1.082.521a.188.188 0 0 0-.037.021l.001-.001a1.017 1.017 0 0 0 .254 1.818l.007.002a1.008 1.008 0 0 0 .793-.076l-.005.003.793-.422 1.294-.668.775-.004-3.875 3.857a.939.939 0 0 0-.28.67v.003a.953.953 0 0 0 .952.951h.002a.959.959 0 0 0 .675-.277l.751-.748.995-.743.515.513-1.773 1.765a.94.94 0 0 0-.28.671v.003a.952.952 0 0 0 .954.95h.002c.262 0 .5-.106.672-.277l2.565-2.555c.004-.004.009-.005.013-.009l2.952-3.233 1.983.282a.303.303 0 0 0 .152-.019l-.002.001.028-.013c.011-.005.023-.009.033-.015l1.836-1.219c.007-.005.01-.012.017-.017s.016-.008.023-.014l.727-.681a1.017 1.017 0 0 0 .119-1.353l.002.003zm-12.905 2.063a.41.41 0 0 1-.441-.689l.001-.001.751-.361.181.528.076.222-.567.301zm1.998-1.044-.885.457-.146-.427-.105-.307 1.158-.571-.023.848zm8.628-3.783c0 .525-.125 1.02-.342 1.463l-2.389-1.085a1.066 1.066 0 0 0-.447-.791l-.003-.002.837-2.777a3.358 3.358 0 0 1 2.345 3.193zm-6.736 0a3.363 3.363 0 0 1 3.794-3.322l-.818 2.716c-.011 0-.021-.003-.033-.003h-.001c-.59 0-1.068.477-1.069 1.066a1.07 1.07 0 0 0 1.069 1.067h.001c.397 0 .74-.219.925-.54l2.207 1.003a3.366 3.366 0 0 1-2.707 1.366 3.364 3.364 0 0 1-3.368-3.353zm3.404.457a.46.46 0 0 1-.461.457h-.001a.459.459 0 0 1-.459-.457c0-.252.207-.457.461-.457s.461.205.461.457zm-7.103 8.586a.346.346 0 0 1-.488 0 .34.34 0 0 1 0-.482l.55-.548.486.484-.548.546zm1.836 2.133a.347.347 0 0 1-.488.001.338.338 0 0 1 0-.482l.55-.548.487.484-.548.546zm1.99-1.982-.001.001-1.009 1.006-.487-.484 1.008-1.003.001-.001c.023-.023.037-.05.051-.077.004-.008.012-.015.015-.023.009-.024.011-.049.015-.074.002-.014.008-.027.008-.041 0-.02-.007-.04-.012-.06-.004-.018-.004-.037-.011-.055a.309.309 0 0 0-.052-.079c-.006-.007-.008-.015-.014-.022l-.001-.001-.918-.914c-.01-.01-.022-.014-.033-.022a.308.308 0 0 0-.048-.032l-.002-.001a.255.255 0 0 0-.051-.018h-.002a.315.315 0 0 0-.058-.011H32.192a.315.315 0 0 0-.044.003h.002a.31.31 0 0 0-.062.012l.002-.001a.28.28 0 0 0-.055.026l.001-.001c-.011.006-.024.009-.035.016l-1.013.757-.515-.513 1.371-1.364 2.492 2.451-.53.525zm3.896-4.01c-.009-.001-.017.002-.026.002h-.016a.318.318 0 0 0-.103.017l.002-.001a.293.293 0 0 0-.056.028l.001-.001a.348.348 0 0 0-.048.035c-.007.006-.016.009-.023.017l-2.685 2.941-2.473-2.433 1.619-1.61a.305.305 0 0 0-.216-.521h-.002l-1.268.007.016-.919 1.774.015a3.96 3.96 0 0 0 2.845 1.201h.002a4 4 0 0 0 .731-.07c.023.018.045.037.074.049l1.377.549.087.433.102.506-1.716-.244zm2.31.102-.179-.89.827-.617.541.718-1.189.789zm2.145-1.618-.479.449-.532-.707.475-.364a.416.416 0 0 1 .585.08.407.407 0 0 1-.049.541z" style="fill:var(--color3, #2e2f42)"/><path fill="#2e2f42" d="m36.344 17.454-1.225-1.219a.303.303 0 0 0-.43 0l-1.224 1.219a.305.305 0 0 0 0 .432l1.224 1.219a.303.303 0 0 0 .43 0l1.225-1.219a.306.306 0 0 0 0-.432zm-1.439 1.005-.792-.789.792-.789.793.789-.793.789zm3.475-8.704-.147.592c.041.01.993.258.993 1.228h.609c0-1.153-.952-1.695-1.455-1.82zm1.455 2.429h-.609v.61h.609v-.61z" style="fill:var(--color3, #2e2f42)"/></symbol><symbol id="icon-Icon3" viewBox="0 0 75 32"><path fill="#f4f4fd" d="M1.143.143h73.143a1 1 0 0 1 1 1v29.714a1 1 0 0 1-1 1H1.143a1 1 0 0 1-1-1V1.143a1 1 0 0 1 1-1z" style="fill:var(--color1, #f4f4fd)"/><path fill="#4d5ae5" d="M37.1 15.409h.609v2.741H37.1v-2.741zm2.437 1.218h.609v1.523h-.609v-1.523zm-4.874.914h.609v.609h-.609v-.609zm-1.827-.305h.609v.914h-.609v-.914z" style="fill:var(--color2, #4d5ae5)"/><path fill="#2e2f42" d="M29.485 23.023h14.621a.914.914 0 0 0 .914-.914V20.89a.914.914 0 0 0-.914-.914h-.305V12.38l1.73-1.639a.92.92 0 1 0-.424-.43l-.002-.006-1.304 1.236v-.703a.914.914 0 0 0-.914-.914H30.703a.914.914 0 0 0-.914.914v9.138h-.305a.914.914 0 0 0-.914.914v1.219c0 .505.409.914.914.914zM45.934 9.621a.305.305 0 1 1 0 .61.305.305 0 1 1 0-.61zm-15.535 1.218c0-.169.136-.305.305-.305h12.184c.168 0 .305.137.305.305v1.279l-.609.579v-1.249a.305.305 0 0 0-.305-.305H31.313a.305.305 0 0 0-.305.305v7.615c0 .169.136.305.305.305h10.966a.306.306 0 0 0 .305-.305v-5.528l.609-.577v7.019H30.4v-9.138zm2.742 3.96h-.003a.914.914 0 1 0 .635 1.571l1.059.531a.306.306 0 0 0 .364-.07l2.251-2.532 2.213 1.658a.304.304 0 0 0 .392-.023l1.923-1.821v4.646H31.618v-7.006h10.357v1.52l-2.155 2.041-2.231-1.673a.303.303 0 0 0-.41.041l-2.282 2.567-.853-.427c.006-.037.01-.073.012-.111a.914.914 0 0 0-.914-.914zm.304.914v.009a.305.305 0 1 1-.61 0v-.01a.306.306 0 0 1 .61-.001zm1.828 4.874h3.046v.305a.305.305 0 0 1-.305.305h-2.437a.306.306 0 0 1-.305-.305v-.305zm-6.092.304c0-.168.137-.305.305-.305h5.178v.305c0 .505.409.914.914.914h2.437a.914.914 0 0 0 .914-.914v-.305h5.178c.168 0 .305.136.305.305v1.219a.306.306 0 0 1-.305.305H29.486a.306.306 0 0 1-.305-.305v-1.219z" style="fill:var(--color3, #2e2f42)"/></symbol><symbol id="icon-Icon2" viewBox="0 0 75 32"><path fill="#f4f4fd" d="M1.143.143h73.143a1 1 0 0 1 1 1v29.714a1 1 0 0 1-1 1H1.143a1 1 0 0 1-1-1V1.143a1 1 0 0 1 1-1z" style="fill:var(--color1, #f4f4fd)"/><path fill="#2e2f42" d="M46.455 15.601c-.001-4.83-3.917-8.744-8.747-8.743a8.746 8.746 0 0 0-2.72 17.059l.062.017a.394.394 0 0 0 .303-.037.365.365 0 0 0 .162-.204l2.209-7a1.093 1.093 0 0 0-.006-2.186h-.006a1.078 1.078 0 0 0-.475.112l.006-.003-2.918-2.918a.363.363 0 1 0-.515.515l2.916 2.919a1.071 1.071 0 0 0 .304 1.318l.002.002-2.104 6.67c-4.159-1.532-6.288-6.145-4.756-10.304s6.145-6.288 10.304-4.756a8.024 8.024 0 0 1 4.756 10.304 8.077 8.077 0 0 1-4.214 4.536l-.05.02-.227-1.071a.365.365 0 0 0-.599-.196l-2.193 1.957a.364.364 0 0 0 .13.619l.003.001 2.799.893a.364.364 0 0 0 .468-.424v.002l-.223-1.051c3.159-1.357 5.331-4.441 5.331-8.032v-.02.001zm-8.745-.365a.365.365 0 0 1 0 .73.365.365 0 0 1 0-.73zm1.2 8.494 1.248-1.113.345 1.623-1.593-.51z" style="fill:var(--color3, #2e2f42)"/><path fill="#4d5ae5" d="M37.345 8.677v.729a.364.364 0 0 0 .728 0v-.729a.365.365 0 0 0-.728 0v.001zm-6.559 6.559a.364.364 0 0 0 0 .728h.729a.364.364 0 0 0 0-.728h-.729zm13.847.729a.364.364 0 0 0 0-.728h-.729a.364.364 0 0 0 0 .728h.729z" style="fill:var(--color2, #4d5ae5)"/></symbol><symbol id="icon-Icon1" viewBox="0 0 75 32"><path fill="#f4f4fd" d="M1.143.143h73.143a1 1 0 0 1 1 1v29.714a1 1 0 0 1-1 1H1.143a1 1 0 0 1-1-1V1.143a1 1 0 0 1 1-1z" style="fill:var(--color1, #f4f4fd)"/><path fill="#2e2f42" d="m46.156 19.484-4.825-4.86.535-2.637c.138.054.285.082.433.083h.019a1.234 1.234 0 1 0-1.16-.812l-.003-.009-2.834.346-4.623-4.647a.3.3 0 0 0-.215-.091.303.303 0 0 0-.213.089l-.864.859a.305.305 0 0 0 0 .432l.465.471a8.433 8.433 0 0 0-1.038 4.079c0 2.346.946 4.471 2.478 6.014l-.001-.001a.311.311 0 0 0 .083.056 1.776 1.776 0 0 0-.03.312v3.536h-3.657a1.526 1.526 0 0 0-1.524 1.524v.61c0 .169.137.305.305.305h14.019a.306.306 0 0 0 .305-.305v-.609a1.526 1.526 0 0 0-1.524-1.524H38.63v-1.567a8.456 8.456 0 0 0 5.809-.858l-.044.022.467.47a.301.301 0 0 0 .428.002l.864-.859a.305.305 0 0 0 0-.432zm-4.282-9.065a.61.61 0 1 1 .43 1.041h-.002a.61.61 0 0 1-.426-1.041h-.001zm-.717 2.003-.342 1.683-.672-.675 1.014-1.008zm-.346-.516-1.097 1.091-.849-.853 1.946-.237zm1.477 11.408c.505 0 .914.409.914.914v.305H29.793v-.305c0-.505.409-.914.914-.914h11.581zm-4.267-1.219v.61h-3.048v-.61h3.048zm-3.047-.609V19.17c0-.739.684-1.341 1.524-1.341s1.524.602 1.524 1.341v2.316h-3.048zm3.657-.969V19.17c0-1.075-.957-1.95-2.133-1.95h-.033a2.17 2.17 0 0 0-1.836 1.012l-.005.009a7.898 7.898 0 0 1-2.178-5.457c0-1.322.324-2.569.897-3.665l-.021.044 10.63 10.691a7.794 7.794 0 0 1-3.581.858 7.958 7.958 0 0 1-1.792-.204l.053.01zm6.451-.391-.429-.431L33.05 8.023l.431-.43 4.534 4.56c.002 0 .003.004.006.005l7.494 7.538-.433.43z" style="fill:var(--color3, #2e2f42)"/><path fill="#4d5ae5" d="M36.5 18.438h-.004a.914.914 0 0 0-.001 1.828h.004a.914.914 0 0 0 .001-1.828zm.214 1.131a.306.306 0 1 1-.216-.521.305.305 0 0 1 .213.521h.003z" style="fill:var(--color2, #4d5ae5)"/></symbol><symbol id="icon-Ellipse3" viewBox="0 0 32 32"><path fill="#4d5ae5" d="M32 16v.021a15.9 15.9 0 0 1-4.686 11.293A15.9 15.9 0 0 1 16.021 32h-.022H16h-.021a15.9 15.9 0 0 1-11.293-4.686A15.9 15.9 0 0 1 0 16.021V16v.001-.021A15.9 15.9 0 0 1 4.686 4.687 15.9 15.9 0 0 1 15.979.001H16h-.001.021a15.9 15.9 0 0 1 11.293 4.686 15.9 15.9 0 0 1 4.686 11.293v.022-.001z" style="fill:var(--color2, #4d5ae5)"/><path fill="#f4f4fd" d="M22.397 22.4h.003v-4.696c0-2.296-.494-4.066-3.179-4.066-1.29 0-2.157.709-2.51 1.38h-.038v-1.166h-2.545v8.547h2.651v-4.232c0-1.114.211-2.192 1.59-2.192 1.36 0 1.38 1.272 1.38 2.264v4.16h2.648zM9.811 13.854h2.654V22.4H9.811v-8.546zM11.137 9.6c-.848 0-1.536.688-1.536 1.537s.688 1.552 1.536 1.552c.849 0 1.538-.704 1.538-1.552S11.985 9.6 11.137 9.6z" style="fill:var(--color1, #f4f4fd)"/></symbol><symbol id="icon-Ellipse2" viewBox="0 0 32 32"><path fill="#4d5ae5" d="M32 16c0 4.418-1.791 8.418-4.686 11.314S20.419 32 16 32c-4.418 0-8.418-1.791-11.314-4.686S0 20.419 0 16c0-4.418 1.791-8.418 4.686-11.314S11.581 0 16 0c4.418 0 8.418 1.791 11.314 4.686S32 11.581 32 16z" style="fill:var(--color2, #4d5ae5)"/><path fill="#f4f4fd" d="M18.132 11.725h1.169V9.69a15.04 15.04 0 0 0-1.702-.09c-1.685 0-2.839 1.06-2.839 3.008V14.4h-1.859v2.275h1.859V22.4h2.279v-5.724h1.784l.283-2.275h-2.068v-1.567c0-.658.178-1.108 1.094-1.108z" style="fill:var(--color1, #f4f4fd)"/></symbol><symbol id="icon-Ellipse1" viewBox="0 0 32 32"><path fill="#4d5ae5" d="M32 16v.021a15.9 15.9 0 0 1-4.686 11.293A15.9 15.9 0 0 1 16.021 32h-.022H16h-.021a15.9 15.9 0 0 1-11.293-4.686A15.9 15.9 0 0 1 0 16.021V16v.001-.021A15.9 15.9 0 0 1 4.686 4.687 15.9 15.9 0 0 1 15.979.001H16h-.001.021a15.9 15.9 0 0 1 11.293 4.686 15.9 15.9 0 0 1 4.686 11.293v.022-.001z" style="fill:var(--color2, #4d5ae5)"/><path fill="#f4f4fd" d="M22.4 12.031c-.44.197-.95.343-1.485.412l-.027.003a2.62 2.62 0 0 0 1.149-1.432l.005-.018a5.181 5.181 0 0 1-1.63.63l-.034.006a2.624 2.624 0 0 0-4.539 1.794v.001c0 .208.018.408.061.598a7.42 7.42 0 0 1-5.398-2.731l-.011-.014a2.626 2.626 0 0 0 .797 3.501l.009.006a2.576 2.576 0 0 1-1.199-.33l.013.007v.029a2.637 2.637 0 0 0 2.085 2.575l.017.003c-.2.055-.43.086-.668.086h-.022.001-.041c-.161 0-.319-.016-.471-.048l.015.003a2.655 2.655 0 0 0 2.449 1.828h.003a5.238 5.238 0 0 1-3.248 1.119h-.006c-.215 0-.422-.01-.628-.036a7.32 7.32 0 0 0 4.002 1.178h.025-.001c4.829 0 7.469-4 7.469-7.467a6.24 6.24 0 0 0-.01-.339c.52-.375.956-.827 1.303-1.344l.012-.019z" style="fill:var(--color1, #f4f4fd)"/></symbol><symbol id="icon-Ellipse" viewBox="0 0 32 32"><path fill="#4d5ae5" d="M32 16v.021a15.9 15.9 0 0 1-4.686 11.293A15.9 15.9 0 0 1 16.021 32h-.022H16h-.021a15.9 15.9 0 0 1-11.293-4.686A15.9 15.9 0 0 1 0 16.021V16v.001-.021A15.9 15.9 0 0 1 4.686 4.687 15.9 15.9 0 0 1 15.979.001H16h-.001.021a15.9 15.9 0 0 1 11.293 4.686 15.9 15.9 0 0 1 4.686 11.293v.022-.001z" style="fill:var(--color2, #4d5ae5)"/><path fill="#f4f4fd" d="M22.387 13.363c-.03-.68-.14-1.148-.298-1.553a3.155 3.155 0 0 0-.739-1.135l-.001-.001a3.146 3.146 0 0 0-1.111-.73l-.022-.007c-.408-.158-.872-.268-1.552-.298-.686-.032-.904-.04-2.641-.04-1.738 0-1.956.008-2.638.038-.68.03-1.147.14-1.552.298a3.125 3.125 0 0 0-1.135.739l-.001.001c-.317.312-.568.69-.73 1.111l-.007.022c-.158.408-.267.872-.298 1.552-.032.686-.04.904-.04 2.642s.008 1.955.038 2.638c.03.68.14 1.148.298 1.553.162.43.415.815.74 1.136.32.324.708.577 1.133.737.408.158.872.268 1.553.298.682.03.9.038 2.638.038s1.955-.008 2.638-.038c.68-.03 1.148-.14 1.553-.298a3.292 3.292 0 0 0 1.865-1.85l.008-.022c.158-.408.268-.874.298-1.554.03-.682.038-.9.038-2.638s-.002-1.956-.032-2.638zm-1.152 5.226c-.028.626-.133.963-.221 1.188-.22.56-.655.995-1.201 1.211l-.014.005c-.225.087-.565.192-1.187.219-.675.03-.878.038-2.586.038s-1.913-.008-2.586-.038c-.625-.027-.962-.132-1.188-.22a1.986 1.986 0 0 1-.735-.477 1.997 1.997 0 0 1-.473-.721l-.005-.014c-.088-.225-.192-.565-.22-1.187-.03-.675-.038-.878-.038-2.586s.008-1.913.038-2.586c.028-.625.133-.963.22-1.188.102-.278.266-.53.48-.735.208-.212.458-.375.736-.478.224-.088.565-.192 1.187-.22.675-.03.878-.038 2.586-.038 1.71 0 1.912.008 2.586.038.625.028.962.133 1.188.22.277.102.53.266.734.478.213.208.376.458.478.736.088.224.193.565.221 1.187.03.675.037.878.037 2.586s-.007 1.908-.037 2.583z" style="fill:var(--color1, #f4f4fd)"/><path fill="#f4f4fd" d="M16.024 12.713a3.29 3.29 0 0 0-.003 6.576h.004a3.29 3.29 0 0 0 .004-6.576h-.004zm0 5.421a2.134 2.134 0 0 1 0-4.268 2.134 2.134 0 0 1 0 4.268zm4.186-5.551a.768.768 0 0 1-1.536 0 .768.768 0 0 1 1.536 0z" style="fill:var(--color1, #f4f4fd)"/></symbol></defs></svg>